<svg xmlns="http://www.w3.org/2000/svg" width="98.00" height="98.00" viewBox="0 0 98.00 98.00"><g transform="matrix(1 0 0 1 0.0 0.0)"><ellipse cx="48.999996185302734" cy="49" rx="48.999996185302734" ry="49" fill="rgb(255,255,255)" stroke="none" stroke-width="0"/></g><g transform="matrix(1 0 0 1 17.0 17.0)"><path d="M 36 12.0004997253418 L 29 12.0004997253418 C 28.44726943969727 12.0004997253418 28 12.44824981689453 28 13.0004997253418 C 28 13.55274963378906 28.44726943969727 14.0004997253418 29 14.0004997253418 L 36 14.0004997253418 C 36.55273056030273 14.0004997253418 37 13.55274963378906 37 13.0004997253418 C 37 12.44824981689453 36.55273056030273 12.0004997253418 36 12.0004997253418 Z" fill="rgb(52,77,93)" stroke="none" stroke-width="0"/></g><g transform="matrix(1 0 0 1 17.0 17.0)"><path d="M 41 12.0004997253418 L 40 12.0004997253418 C 39.44726943969727 12.0004997253418 39 12.44824981689453 39 13.0004997253418 C 39 13.55274963378906 39.44726943969727 14.0004997253418 40 14.0004997253418 L 41 14.0004997253418 C 41.55273056030273 14.0004997253418 42 13.55274963378906 42 13.0004997253418 C 42 12.44824981689453 41.55273056030273 12.0004997253418 41 12.0004997253418 Z" fill="rgb(52,77,93)" stroke="none" stroke-width="0"/></g><g transform="matrix(1 0 0 1 17.0 17.0)"><path d="M 46 12.0004997253418 L 45 12.0004997253418 C 44.44726943969727 12.0004997253418 44 12.44824981689453 44 13.0004997253418 C 44 13.55274963378906 44.44726943969727 14.0004997253418 45 14.0004997253418 L 46 14.0004997253418 C 46.55273056030273 14.0004997253418 47 13.55274963378906 47 13.0004997253418 C 47 12.44824981689453 46.55273056030273 12.0004997253418 46 12.0004997253418 Z" fill="rgb(52,77,93)" stroke="none" stroke-width="0"/></g><g transform="matrix(1 0 0 1 17.0 17.0)"><path d="M 30 33.0004997253418 L 31 33.0004997253418 C 31.55273056030273 33.0004997253418 32 32.55274963378906 32 32.0004997253418 C 32 31.44824981689453 31.55273056030273 31.0004997253418 31 31.0004997253418 L 30 31.0004997253418 C 29.44726943969727 31.0004997253418 29 31.44824981689453 29 32.0004997253418 C 29 32.55274963378906 29.44726943969727 33.0004997253418 30 33.0004997253418 Z" fill="rgb(52,77,93)" stroke="none" stroke-width="0"/></g><g transform="matrix(1 0 0 1 17.0 17.0)"><path d="M 25 33.0004997253418 L 26 33.0004997253418 C 26.55273056030273 33.0004997253418 27 32.55274963378906 27 32.0004997253418 C 27 31.44824981689453 26.55273056030273 31.0004997253418 26 31.0004997253418 L 25 31.0004997253418 C 24.44726943969727 31.0004997253418 24 31.44824981689453 24 32.0004997253418 C 24 32.55274963378906 24.44726943969727 33.0004997253418 25 33.0004997253418 Z" fill="rgb(52,77,93)" stroke="none" stroke-width="0"/></g><g transform="matrix(1 0 0 1 17.0 17.0)"><path d="M 29 50.0004997253418 L 28 50.0004997253418 C 27.44726943969727 50.0004997253418 27 50.44824981689453 27 51.0004997253418 C 27 51.55274963378906 27.44726943969727 52.0004997253418 28 52.0004997253418 L 29 52.0004997253418 C 29.55273056030273 52.0004997253418 30 51.55274963378906 30 51.0004997253418 C 30 50.44824981689453 29.55273056030273 50.0004997253418 29 50.0004997253418 Z" fill="rgb(52,77,93)" stroke="none" stroke-width="0"/></g><g transform="matrix(1 0 0 1 17.0 17.0)"><path d="M 34 50.0004997253418 L 33 50.0004997253418 C 32.44726943969727 50.0004997253418 32 50.44824981689453 32 51.0004997253418 C 32 51.55274963378906 32.44726943969727 52.0004997253418 33 52.0004997253418 L 34 52.0004997253418 C 34.55273056030273 52.0004997253418 35 51.55274963378906 35 51.0004997253418 C 35 50.44824981689453 34.55273056030273 50.0004997253418 34 50.0004997253418 Z" fill="rgb(52,77,93)" stroke="none" stroke-width="0"/></g><g transform="matrix(1 0 0 1 17.0 17.0)"><path d="M 51 41.0004997253418 C 45.82384872436523 41.0004997253418 41.55426025390625 44.95417022705078 41.05072021484375 50.0004997253418 L 39 50.0004997253418 L 39 46.0004997253418 C 39 44.89746856689453 38.1025390625 44.0004997253418 37 44.0004997253418 L 15 44.0004997253418 C 13.89745998382568 44.0004997253418 13 44.89746856689453 13 46.0004997253418 L 13 49.97517013549805 C 8.546510696411133 49.71411895751953 5 46.01874923706055 5 41.5004997253418 C 5 36.81349182128906 8.813480377197266 33.0004997253418 13.5 33.0004997253418 L 20 33.0004997253418 L 20 37.0004997253418 C 20 38.10353088378906 20.8974609375 39.0004997253418 22 39.0004997253418 L 44 39.0004997253418 C 45.1025390625 39.0004997253418 46 38.10353088378906 46 37.0004997253418 L 46 33.0004997253418 L 50.5 33.0004997253418 C 56.2900390625 33.0004997253418 61 28.2900505065918 61 22.5004997253418 C 61 16.87970924377441 56.55712890625 12.28940010070801 51 12.02579975128174 L 51 8.000469207763672 C 51 6.897439002990723 50.13769912719727 6.000469207763672 49.0771484375 6.000469207763672 L 26.92284774780273 6.000469207763672 C 25.86229705810547 6.000469207763672 24.99999809265137 6.897439002990723 24.99999809265137 8.000469207763672 L 24.99999809265137 12.00046920776367 L 22.99999809265137 12.00046920776367 L 22.99999809265137 11.00046920776367 C 22.99999809265137 10.49607944488525 22.6240177154541 10.07077884674072 22.1240177154541 10.00827884674072 L 20.66503715515137 9.825658798217773 L 21.5673770904541 8.664528846740723 C 21.8769474029541 8.266578674316406 21.84178733825684 7.700168609619141 21.48534774780273 7.343729019165039 L 18.65721702575684 4.515599250793457 C 18.29979705810547 4.159149169921875 17.73436737060547 4.123999118804932 17.3359260559082 4.433079242706299 L 16.17479705810547 5.336409091949463 L 15.99217700958252 3.876449108123779 C 15.92968654632568 3.375959157943726 15.50390720367432 3.000469207763672 14.99999713897705 3.000469207763672 L 10.99999713897705 3.000469207763672 C 10.49608707427979 3.000469207763672 10.0703067779541 3.375959157943726 10.0078067779541 3.876449108123779 L 9.825197219848633 5.336409091949463 L 8.664056777954102 4.433089256286621 C 8.265626907348633 4.123999118804932 7.700196743011475 4.159159183502197 7.342766761779785 4.515609264373779 L 4.514646530151367 7.343729019165039 C 4.158196449279785 7.700179100036621 4.123046398162842 8.266578674316406 4.432616710662842 8.664528846740723 L 5.334956645965576 9.825658798217773 L 3.8759765625 10.00827884674072 C 3.3759765625 10.07077884674072 2.999996662139893 10.49606895446777 2.999996662139893 11.00046920776367 L 2.999996662139893 15.00046920776367 C 2.999996662139893 15.50485897064209 3.374996662139893 15.93015956878662 3.8759765625 15.99265956878662 L 5.334956645965576 16.17527961730957 L 4.432616710662842 17.33641052246094 C 4.123046875 17.73435974121094 4.158206939697266 18.3007698059082 4.514646530151367 18.65721130371094 L 7.342776298522949 21.48582077026367 C 7.700196266174316 21.84324073791504 8.265625953674316 21.87742042541504 8.664066314697266 21.56834030151367 L 9.825196266174316 20.66501998901367 L 10.00781631469727 22.12449073791504 C 10.0703067779541 22.62498092651367 10.49608612060547 23.0004711151123 10.99999618530273 23.0004711151123 L 14.99999618530273 23.0004711151123 C 15.50390625 23.0004711151123 15.92968654632568 22.62498092651367 15.99218654632568 22.12449073791504 L 16.17480659484863 20.66501998901367 L 17.3359375 21.56834030151367 C 17.73437690734863 21.87742042541504 18.29980659484863 21.84324073791504 18.6572265625 21.48582077026367 L 21.4853572845459 18.65721130371094 C 21.84180641174316 18.30076217651367 21.87695693969727 17.73436164855957 21.56738662719727 17.33641052246094 L 20.66504669189453 16.1752815246582 L 22.12402725219727 15.99266147613525 C 22.62499809265137 15.93016147613525 22.99999809265137 15.50486183166504 22.99999809265137 15.0004711151123 L 22.99999809265137 14.0004711151123 L 24.99999809265137 14.0004711151123 L 24.99999809265137 18.0004711151123 C 24.99999809265137 19.10350036621094 25.8622989654541 20.0004711151123 26.92284774780273 20.0004711151123 L 49.0771484375 20.0004711151123 C 50.13769912719727 20.0004711151123 51 19.10350036621094 51 18.0004711151123 L 51 14.02580070495605 C 55.4534912109375 14.28685092926025 59 17.98221969604492 59 22.5004711151123 C 59 27.18748092651367 55.18651962280273 31.0004711151123 50.5 31.0004711151123 L 46 31.0004711151123 L 46 27.0004711151123 C 46 25.89744186401367 45.1025390625 25.0004711151123 44 25.0004711151123 L 22 25.0004711151123 C 20.8974609375 25.0004711151123 20 25.89744186401367 20 27.0004711151123 L 20 31.0004711151123 L 13.5 31.0004711151123 C 7.709959983825684 31.0004711151123 3 35.71092224121094 3 41.50047302246094 C 3 47.12126159667969 7.442870140075684 51.71157073974609 13 51.97517395019531 L 13 56.00050354003906 C 13 57.10353469848633 13.89745998382568 58.00050354003906 15 58.00050354003906 L 37 58.00050354003906 C 38.1025390625 58.00050354003906 39 57.10353469848633 39 56.00050354003906 L 39 52.00050354003906 L 41.05072021484375 52.00050354003906 C 41.55426025390625 57.04683303833008 45.82384872436523 61.00050354003906 51 61.00050354003906 C 56.513671875 61.00050354003906 61 56.51466369628906 61 51.00050354003906 C 61 45.48634338378906 56.513671875 41.00050354003906 51 41.00050354003906 Z M 21 14.11770057678223 L 18.6718692779541 14.40920066833496 C 18.31542015075684 14.4536304473877 18.0097599029541 14.6865406036377 17.87206840515137 15.01858043670654 C 17.7343692779541 15.35110092163086 17.78612899780273 15.73147010803223 18.00683784484863 16.01515960693359 L 19.44726753234863 17.86721038818359 L 17.8671875 19.44778060913086 L 16.0146484375 18.00686073303223 C 15.73144817352295 17.78665161132812 15.35058879852295 17.73439979553223 15.017578125 17.87258148193359 C 14.68554782867432 18.01028060913086 14.45312786102295 18.31545066833496 14.40819835662842 18.67238235473633 L 14.11717796325684 21.00051307678223 L 11.88279819488525 21.00051307678223 L 11.59177780151367 18.67238235473633 C 11.5468578338623 18.31545257568359 11.31443786621094 18.01027297973633 10.98239803314209 17.87258148193359 C 10.65134811401367 17.73440170288086 10.26950836181641 17.78518104553223 9.98532772064209 18.00686073303223 L 8.132787704467773 19.44778060913086 L 6.552707672119141 17.86721038818359 L 7.993137836456299 16.01515960693359 C 8.213837623596191 15.73146915435791 8.265598297119141 15.35109996795654 8.127907752990723 15.01857948303223 C 7.990207672119141 14.68654918670654 7.684547901153564 14.45363998413086 7.328107833862305 14.40919971466064 L 4.999998092651367 14.11769962310791 L 4.999998092651367 11.88331985473633 L 7.328127861022949 11.59229946136475 C 7.684577941894531 11.54786968231201 7.990237712860107 11.31495952606201 8.127927780151367 10.98291969299316 C 8.265627861022949 10.65040016174316 8.213868141174316 10.27003002166748 7.993157863616943 9.986339569091797 L 6.552727699279785 8.133810043334961 L 8.132807731628418 6.553730010986328 L 9.985347747802734 7.994649887084961 C 10.26952743530273 8.215350151062012 10.65038776397705 8.267109870910645 10.98241806030273 8.12893009185791 C 11.31444835662842 7.991230010986328 11.54686832427979 7.686059951782227 11.59179782867432 7.329130172729492 L 11.8828182220459 5.0005202293396 L 14.11719799041748 5.0005202293396 L 14.40819835662842 7.32912015914917 C 14.45311832427979 7.686049938201904 14.68553829193115 7.991230010986328 15.017578125 8.128920555114746 C 15.34960842132568 8.266130447387695 15.73046779632568 8.214860916137695 16.0146484375 7.994640350341797 L 17.8671875 6.553720474243164 L 19.44726753234863 8.133800506591797 L 18.00683784484863 9.986340522766113 C 17.7861385345459 10.2700309753418 17.73437690734863 10.65040016174316 17.87206840515137 10.98292064666748 C 18.00976753234863 11.31495094299316 18.31542778015137 11.54786109924316 18.6718692779541 11.59230041503906 L 21 11.88332080841064 L 21 14.11770057678223 Z M 27 18.00051116943359 L 26.96282958984375 13.18471145629883 C 26.97478866577148 13.12288188934326 27 13.06588172912598 27 13.00051116943359 C 27 12.92995071411133 26.9737491607666 12.86800098419189 26.95989990234375 12.80160140991211 L 26.92284965515137 8.000511169433594 L 49.00004959106445 8.000511169433594 L 48.99419021606445 18.00051116943359 L 27 18.00051116943359 Z M 22 27.00051116943359 L 44 27.00051116943359 L 44 37.00051116943359 L 22 37.00051116943359 L 21.99950981140137 32.00295257568359 C 21.99950981140137 32.00210189819336 22 32.00136184692383 22 32.00051116943359 C 22 31.99966049194336 21.99950981140137 31.99892044067383 21.99950981140137 31.99807167053223 L 21.99901962280273 27.00051116943359 Z M 15 56.00051116943359 L 15 46.00051116943359 L 37 46.00051116943359 L 37.00098037719727 50.99568939208984 C 37.00098037719727 50.99739837646484 37 50.99879837036133 37 51.00051116943359 C 37 51.00222396850586 37.00098037719727 51.00362014770508 37.00098037719727 51.00533294677734 L 37.00196075439453 56.00051116943359 L 15 56.00051116943359 Z M 51 59.00051116943359 C 46.58887100219727 59.00051116943359 43 55.41164016723633 43 51.00051116943359 C 43 46.58938217163086 46.58887100219727 43.00051116943359 51 43.00051116943359 C 55.41112899780273 43.00051116943359 59 46.58938217163086 59 51.00051116943359 C 59 55.41164016723633 55.41112899780273 59.00051116943359 51 59.00051116943359 Z" fill="rgb(52,77,93)" stroke="none" stroke-width="0"/></g><g transform="matrix(1 0 0 1 17.0 17.0)"><path d="M 13 9.000490188598633 C 10.79395008087158 9.000490188598633 9 10.79491996765137 9 13.00049018859863 C 9 15.2060604095459 10.79395008087158 17.00049018859863 13 17.00049018859863 C 15.20604991912842 17.00049018859863 17 15.2060604095459 17 13.00049018859863 C 17 10.79491996765137 15.20604991912842 9.000490188598633 13 9.000490188598633 Z M 13 15.00049018859863 C 11.89745998382568 15.00049018859863 11 14.10352039337158 11 13.00049018859863 C 11 11.89745998382568 11.89745998382568 11.00049018859863 13 11.00049018859863 C 14.10254001617432 11.00049018859863 15 11.89745998382568 15 13.00049018859863 C 15 14.10352039337158 14.10254001617432 15.00049018859863 13 15.00049018859863 Z" fill="rgb(52,77,93)" stroke="none" stroke-width="0"/></g><g transform="matrix(1 0 0 1 17.0 17.0)"><path d="M 54.23139953613281 47.36040115356445 L 49.93257141113281 52.51909255981445 L 47.70698165893555 50.29302215576172 C 47.31635284423828 49.90239334106445 46.68354034423828 49.90239334106445 46.29292297363281 50.29302215576172 C 45.90229415893555 50.68316268920898 45.90229415893555 51.31646347045898 46.29292297363281 51.70708084106445 L 49.29292297363281 54.70756912231445 C 49.48042297363281 54.89555740356445 49.73530197143555 55.00053787231445 49.99995422363281 55.00053787231445 C 50.01460266113281 55.00053787231445 50.03022384643555 55.00004959106445 50.04487609863281 54.99955749511719 C 50.32612609863281 54.98685836791992 50.58784484863281 54.85648727416992 50.76850509643555 54.64066696166992 L 55.76850509643555 48.64066696166992 C 56.12202453613281 48.21634674072266 56.06440353393555 47.58597564697266 55.64057540893555 47.23246765136719 C 55.21479415893555 46.87846755981445 54.58491516113281 46.93705749511719 54.23140716552734 47.36039733886719 Z" fill="rgb(52,77,93)" stroke="none" stroke-width="0"/></g><g transform="matrix(1 0 0 1 17.0 17.0)"><path d="M 35 33.0004997253418 L 41 33.0004997253418 C 41.55273056030273 33.0004997253418 42 32.55274963378906 42 32.0004997253418 C 42 31.44824981689453 41.55273056030273 31.0004997253418 41 31.0004997253418 L 35 31.0004997253418 C 34.44726943969727 31.0004997253418 34 31.44824981689453 34 32.0004997253418 C 34 32.55274963378906 34.44726943969727 33.0004997253418 35 33.0004997253418 Z" fill="rgb(52,77,93)" stroke="none" stroke-width="0"/></g><g transform="matrix(1 0 0 1 17.0 17.0)"><path d="M 24 50.0004997253418 L 18 50.0004997253418 C 17.44726943969727 50.0004997253418 17 50.44824981689453 17 51.0004997253418 C 17 51.55274963378906 17.44726943969727 52.0004997253418 18 52.0004997253418 L 24 52.0004997253418 C 24.55273056030273 52.0004997253418 25 51.55274963378906 25 51.0004997253418 C 25 50.44824981689453 24.55273056030273 50.0004997253418 24 50.0004997253418 Z" fill="rgb(52,77,93)" stroke="none" stroke-width="0"/></g></svg>