<svg xmlns="http://www.w3.org/2000/svg" width="84.00" height="84.00" viewBox="0 0 84.00 84.00"><g transform="matrix(1 0 0 1 0.0 0.0)"><path d="M 5 0 L 79 0 C 81.76142120361328 0 84 2.238576173782349 84 5 L 84 79 C 84 81.76142120361328 81.76142120361328 84 79 84 L 5 84 C 2.238576173782349 84 0 81.76142120361328 0 79 L 0 5 C 0 2.238576173782349 2.238576173782349 0 5 0 Z" fill="rgb(251,130,255)" stroke="none" stroke-width="0"/></g><g transform="matrix(1 0 0 1 4.76068115234375 -0.8895263671875)"><path d="M 21.29316139221191 31.21000671386719 L 26.17217445373535 31.21000671386719 C 26.69306373596191 31.21000671386719 27.11538887023926 30.78768157958984 27.11538887023926 30.26679229736328 L 27.11538887023926 25.38777732849121 C 27.11538887023926 24.86688804626465 26.69306373596191 24.44456481933594 26.17217445373535 24.44456481933594 L 21.29316139221191 24.44456481933594 C 20.77227020263672 24.44456481933594 20.34994697570801 24.86688804626465 20.34994697570801 25.38777732849121 L 20.34994697570801 30.26679229736328 C 20.34994697570801 30.78768157958984 20.77215385437012 31.21000671386719 21.29316139221191 31.21000671386719 Z M 22.23637390136719 26.33099555969238 L 25.22896003723145 26.33099555969238 L 25.22896003723145 29.32357978820801 L 22.23637390136719 29.32357978820801 L 22.23637390136719 26.33099555969238 Z M 30.82575607299805 31.21000671386719 L 35.70476531982422 31.21000671386719 C 36.22565460205078 31.21000671386719 36.64797973632812 30.78768157958984 36.64797973632812 30.26679229736328 L 36.64797973632812 25.38777732849121 C 36.64797973632812 24.86688804626465 36.22565460205078 24.44456481933594 35.70476531982422 24.44456481933594 L 30.82575607299805 24.44456481933594 C 30.30486488342285 24.44456481933594 29.88254165649414 24.86688804626465 29.88254165649414 25.38777732849121 L 29.88254165649414 30.26679229736328 C 29.88254165649414 30.78768157958984 30.30486488342285 31.21000671386719 30.82575607299805 31.21000671386719 Z M 31.76897239685059 26.33099555969238 L 34.76155090332031 26.33099555969238 L 34.76155090332031 29.32357978820801 L 31.76897239685059 29.32357978820801 L 31.76897239685059 26.33099555969238 Z M 40.35846328735352 31.21000671386719 L 45.23747253417969 31.21000671386719 C 45.75836563110352 31.21000671386719 46.18069076538086 30.78768157958984 46.18069076538086 30.26679229736328 L 46.18069076538086 25.38777732849121 C 46.18069076538086 24.86688804626465 45.75836563110352 24.44456481933594 45.23747253417969 24.44456481933594 L 40.35846328735352 24.44456481933594 C 39.83757400512695 24.44456481933594 39.41525268554688 24.86688804626465 39.41525268554688 25.38777732849121 L 39.41525268554688 30.26679229736328 C 39.41525268554688 30.78768157958984 39.83745956420898 31.21000671386719 40.35846328735352 31.21000671386719 Z M 41.30167770385742 26.33099555969238 L 44.29425811767578 26.33099555969238 L 44.29425811767578 29.32357978820801 L 41.30167770385742 29.32357978820801 L 41.30167770385742 26.33099555969238 Z M 21.29315948486328 40.14283752441406 L 26.17217254638672 40.14283752441406 C 26.69306182861328 40.14283752441406 27.11538887023926 39.72051239013672 27.11538887023926 39.19962310791016 L 27.11538887023926 34.32061004638672 C 27.11538887023926 33.79972076416016 26.69306182861328 33.37739562988281 26.17217254638672 33.37739562988281 L 21.29315948486328 33.37739562988281 C 20.77226829528809 33.37739562988281 20.34994316101074 33.79972076416016 20.34994316101074 34.32061004638672 L 20.34994316101074 39.19962310791016 C 20.34994316101074 39.72051239013672 20.77215194702148 40.14283752441406 21.29315948486328 40.14283752441406 Z M 22.23637390136719 35.26382064819336 L 25.22895812988281 35.26382064819336 L 25.22895812988281 38.25640487670898 L 22.23637390136719 38.25640487670898 L 22.23637390136719 35.26382064819336 Z M 30.82575607299805 40.14283752441406 L 35.70476531982422 40.14283752441406 C 36.22565460205078 40.14283752441406 36.64797973632812 39.72051239013672 36.64797973632812 39.19962310791016 L 36.64797973632812 34.32061004638672 C 36.64797973632812 33.79972076416016 36.22565460205078 33.37739562988281 35.70476531982422 33.37739562988281 L 30.82575607299805 33.37739562988281 C 30.30486488342285 33.37739562988281 29.88254165649414 33.79972076416016 29.88254165649414 34.32061004638672 L 29.88254165649414 39.19962310791016 C 29.88254165649414 39.72051239013672 30.30486488342285 40.14283752441406 30.82575607299805 40.14283752441406 Z M 31.76897239685059 35.26382064819336 L 34.76155090332031 35.26382064819336 L 34.76155090332031 38.25640487670898 L 31.76897239685059 38.25640487670898 L 31.76897239685059 35.26382064819336 Z M 54.22158813476562 37.53248977661133 L 54.22158813476562 28.35796165466309 L 56.92779541015625 28.35796165466309 C 57.68920516967773 28.35796165466309 58.33318328857422 27.83683586120605 58.49376678466797 27.09051704406738 C 58.65422821044922 26.34443283081055 58.28166198730469 25.60460090637207 57.58781051635742 25.29168891906738 L 33.65339660644531 14.48846626281738 C 33.40674591064453 14.37716579437256 33.12401580810547 14.37716579437256 32.87736511230469 14.48846626281738 L 8.942710876464844 25.29168891906738 C 8.248741149902344 25.60483551025391 7.876288890838623 26.34466743469238 8.036870956420898 27.09075164794922 C 8.197452545166016 27.83683586120605 8.841316223144531 28.35796165466309 9.602607727050781 28.35796165466309 L 12.30880737304688 28.35796165466309 L 12.30880737304688 53.68091201782227 L 9.500150680541992 53.68091201782227 C 8.97926139831543 53.68091201782227 8.556936264038086 54.10323715209961 8.556936264038086 54.62412643432617 L 8.556936264038086 57.69322204589844 C 8.556936264038086 58.21411895751953 8.97926139831543 58.63644027709961 9.500150680541992 58.63644027709961 L 32.49901580810547 58.63644027709961 C 34.50416946411133 65.96875762939453 41.22409820556641 71.37408447265625 49.18376922607422 71.37408447265625 C 58.72049331665039 71.37408447265625 66.47914123535156 63.61531829833984 66.47914123535156 54.07871627807617 C 66.47914123535156 46.29365921020508 61.30867004394531 39.69445419311523 54.22159194946289 37.53249359130859 Z M 13.25201797485352 26.47141456604004 L 10.91414451599121 26.47141456604004 L 33.26537704467773 16.38291168212891 L 55.61648559570312 26.47141456604004 L 53.27849960327148 26.47141456604004 C 52.75760650634766 26.47141456604004 52.33528137207031 26.89373970031738 52.33528137207031 27.41462898254395 L 52.33528137207031 37.07184219360352 C 51.31307220458984 36.88285064697266 50.25997543334961 36.78322601318359 49.18388366699219 36.78322601318359 C 48.1597900390625 36.78322601318359 47.15644836425781 36.87329864501953 46.18080520629883 37.04484558105469 L 46.18080520629883 34.32060623168945 C 46.18080520629883 33.79971313476562 45.75848388671875 33.37739181518555 45.23759841918945 33.37739181518555 L 40.35858535766602 33.37739181518555 C 39.83769607543945 33.37739181518555 39.41537094116211 33.79971313476562 39.41537094116211 34.32060623168945 L 39.41537094116211 39.19962310791016 C 39.41537094116211 39.38814926147461 39.47126007080078 39.56334686279297 39.56663513183594 39.71072387695312 C 38.66044616699219 40.3192138671875 37.81509017944336 41.01141738891602 37.04082489013672 41.77565765380859 L 25.57853507995605 41.77565765380859 C 25.05764579772949 41.77565765380859 24.63532257080078 42.19797897338867 24.63532257080078 42.71886825561523 L 24.63532257080078 53.68079376220703 L 14.19523429870605 53.68079376220703 L 14.19523429870605 27.41462898254395 C 14.19523429870605 26.89373970031738 13.77290916442871 26.47141265869141 13.25201988220215 26.47141265869141 Z M 42.20280456542969 38.25640487670898 L 41.30167770385742 38.25640487670898 L 41.30167770385742 35.26382064819336 L 44.29425811767578 35.26382064819336 L 44.29425811767578 37.48828125 C 43.57670974731445 37.70003128051758 42.87849807739258 37.95717239379883 42.20280075073242 38.25640487670898 Z M 26.52151489257812 53.68079376220703 L 26.52151489257812 43.66209030151367 L 32.32204437255859 43.66209030151367 L 32.32204437255859 50.22297286987305 C 32.06702423095703 51.33879852294922 31.92023658752441 52.49517822265625 31.89335823059082 53.68079376220703 L 26.52151489257812 53.68079376220703 Z M 34.20847320556641 43.66209030151367 L 35.38631439208984 43.66209030151367 C 34.95891571044922 44.22672271728516 34.56512832641602 44.818115234375 34.20847320556641 45.43356704711914 L 34.20847320556641 43.66209030151367 Z M 10.44336318969727 56.74989700317383 L 10.44336318969727 55.56722259521484 L 31.95313453674316 55.56722259521484 C 31.98720741271973 55.96538162231445 32.03412628173828 56.3598747253418 32.0948486328125 56.74989700317383 L 10.44336318969727 56.74989700317383 Z M 49.18376541137695 69.48765563964844 C 40.68729400634766 69.48765563964844 33.77482986450195 62.57518768310547 33.77482986450195 54.07871627807617 C 33.77482986450195 45.58223724365234 40.68729400634766 38.66977691650391 49.18376541137695 38.66977691650391 C 57.68024063110352 38.66977691650391 64.59270477294922 45.58211898803711 64.59270477294922 54.0786018371582 C 64.59270477294922 62.57508087158203 57.68024063110352 69.48765563964844 49.18376541137695 69.48765563964844 Z M 59.88842391967773 46.21996688842773 L 54.64533233642578 46.21996688842773 L 54.64533233642578 45.35044479370117 C 54.64533233642578 43.8307991027832 53.40913009643555 42.5946044921875 51.88949584960938 42.5946044921875 L 46.47815704345703 42.5946044921875 C 44.95851516723633 42.5946044921875 43.72220230102539 43.8307991027832 43.72220230102539 45.35044479370117 L 43.72220230102539 46.21996688842773 L 38.4789924621582 46.21996688842773 C 37.48036193847656 46.21996688842773 36.66790390014648 47.03243255615234 36.66790390014648 48.03105926513672 L 36.66790390014648 52.16020965576172 C 36.66790390014648 53.04294204711914 37.01536178588867 53.83158874511719 37.69942855834961 54.51683044433594 L 37.69942855834961 61.71851348876953 C 37.69942855834961 63.17259216308594 38.88245391845703 64.35562133789062 40.3365364074707 64.35562133789062 L 58.0308837890625 64.35562133789062 C 59.48496627807617 64.35562133789062 60.66799163818359 63.17259216308594 60.66799163818359 61.71851348876953 L 60.66799163818359 54.5169563293457 C 61.35217666625977 53.83170318603516 61.69963073730469 53.04294204711914 61.69963073730469 52.16033554077148 L 61.69963073730469 48.03117370605469 C 61.69963073730469 47.03254699707031 60.88717651367188 46.21996688842773 59.88842391967773 46.21996688842773 Z M 44.08380508422852 48.10639190673828 L 54.28384399414062 48.10639190673828 L 54.28384399414062 49.98539733886719 C 54.28384399414062 50.06262969970703 54.21604919433594 50.13030242919922 54.13894271850586 50.13030242919922 L 44.22870635986328 50.13030242919922 C 44.15148162841797 50.13030242919922 44.08380508422852 50.06250381469727 44.08380508422852 49.98539733886719 L 44.08380508422852 48.10639190673828 Z M 45.60874557495117 45.35044479370117 C 45.60874557495117 44.87105178833008 45.99876403808594 44.48103332519531 46.478271484375 44.48103332519531 L 51.88961410522461 44.48103332519531 C 52.36899948120117 44.48103332519531 52.75901794433594 44.87105178833008 52.75901794433594 45.35044479370117 L 52.75901794433594 46.21996688842773 L 45.60874557495117 46.21996688842773 L 45.60874557495117 45.35044479370117 Z M 38.55445098876953 48.10639190673828 L 42.1973762512207 48.10639190673828 L 42.1973762512207 49.98539733886719 C 42.1973762512207 51.10546493530273 43.10863876342773 52.01672744750977 44.22870635986328 52.01672744750977 L 54.13882827758789 52.01672744750977 C 55.25889587402344 52.01672744750977 56.1701545715332 51.10546493530273 56.1701545715332 49.98539733886719 L 56.1701545715332 48.10639190673828 L 59.81308746337891 48.10639190673828 L 59.81308746337891 52.16033554077148 C 59.81308746337891 52.54056549072266 59.68575668334961 53.05744934082031 58.69301986694336 53.68562698364258 C 57.5788459777832 54.39056777954102 55.09465789794922 54.91546249389648 51.96825790405273 55.11683654785156 C 51.47625350952148 54.07175827026367 50.41325378417969 53.34643173217773 49.18365097045898 53.34643173217773 C 47.95346450805664 53.34643173217773 46.89022445678711 54.07258605957031 46.39845657348633 55.11837387084961 C 43.27606582641602 54.91852951049805 40.79222869873047 54.39316177368164 39.67428207397461 53.68574523925781 C 38.68154907226562 53.05768203735352 38.55421829223633 52.54068374633789 38.55421829223633 52.16044998168945 L 38.55421829223633 48.10639190673828 Z M 50.37363052368164 56.42259979248047 C 50.37363052368164 57.0786018371582 49.83988952636719 57.61234664916992 49.18376159667969 57.61234664916992 C 48.52764129638672 57.61234664916992 47.99390029907227 57.07871627807617 47.99390029907227 56.42259979248047 C 47.99390029907227 55.7664794921875 48.52764129638672 55.23273468017578 49.18376159667969 55.23273468017578 C 49.83988952636719 55.23273468017578 50.37363052368164 55.76659393310547 50.37363052368164 56.42259979248047 Z M 58.0308837890625 62.46931457519531 L 40.3365364074707 62.46931457519531 C 39.92258453369141 62.46931457519531 39.58585739135742 62.13258743286133 39.58585739135742 61.7186279296875 L 39.58585739135742 55.74938583374023 C 41.46649932861328 56.53802490234375 44.19640350341797 56.86119079589844 46.16135406494141 56.99301147460938 C 46.42969512939453 58.41750335693359 47.68240356445312 59.4986572265625 49.18376541137695 59.4986572265625 C 50.68560028076172 59.4986572265625 51.93866348266602 58.41667556762695 52.20641708374023 56.99148178100586 C 54.17266082763672 56.85872268676758 56.90338516235352 56.53519821166992 58.78156280517578 55.7489128112793 L 58.78156280517578 61.71863555908203 C 58.78156280517578 62.13258743286133 58.4448356628418 62.46931457519531 58.0308837890625 62.46931457519531 Z" fill="rgb(18,38,63)" stroke="none" stroke-width="0"/></g></svg>