<svg xmlns="http://www.w3.org/2000/svg" width="98.00" height="98.00" viewBox="0 0 98.00 98.00"><g transform="matrix(1 0 0 1 0.0 -0.0009765625)"><ellipse cx="48.999996185302734" cy="49" rx="48.999996185302734" ry="49" fill="rgb(255,255,255)" stroke="none" stroke-width="0"/></g><g transform="matrix(1 0 0 1 19.479736328125 12.6845703125)"><path d="M 58.22914886474609 56.43622207641602 L 49.48686981201172 48.00678634643555 C 48.631591796875 47.18218231201172 47.36302185058594 47.04173278808594 46.36820983886719 47.5728645324707 L 41.36728668212891 42.72011566162109 C 43.74713134765625 39.14469909667969 45.13631057739258 34.85583877563477 45.13631057739258 30.24813461303711 C 45.13631057739258 17.80405807495117 35.01223373413086 7.679977416992188 22.56815528869629 7.679977416992188 C 10.12407875061035 7.679977416992188 0 17.80417251586914 0 30.24824905395508 C 0 42.69244003295898 10.1239652633667 52.81652450561523 22.56815528869629 52.81652450561523 C 27.9937801361084 52.81652450561523 32.97809982299805 50.89147567749023 36.87489700317383 47.6892204284668 L 41.64023208618164 52.31330108642578 C 41.31424331665039 52.77317047119141 41.14046478271484 53.32217788696289 41.15003204345703 53.89886474609375 C 41.16191482543945 54.61334609985352 41.44996643066406 55.27836227416992 41.96115493774414 55.77109527587891 L 50.70331192016602 64.20040893554688 C 51.22187805175781 64.70040893554688 51.89242553710938 64.94914245605469 52.56182098388672 64.94914245605469 C 53.25912094116211 64.94914245605469 53.95538711547852 64.6790771484375 54.47683334350586 64.14171600341797 L 58.28806686401367 60.21389770507812 C 58.78495407104492 59.701904296875 59.05202102661133 59.02513122558594 59.04014205932617 58.30856704711914 C 59.02838134765625 57.59408569335938 58.74032592773438 56.92930221557617 58.22914505004883 56.43622207641602 Z M 1.845018982887268 30.24824905395508 C 1.845018982887268 18.82147216796875 11.14137744903564 9.525112152099609 22.56815528869629 9.525112152099609 C 33.99493789672852 9.525112152099609 43.29129409790039 18.82147216796875 43.29129409790039 30.24824905395508 C 43.29129409790039 41.67514801025391 33.99493789672852 50.97150802612305 22.56815528869629 50.97150802612305 C 11.14137554168701 50.97150802612305 1.845018982887268 41.67502975463867 1.845018982887268 30.24825286865234 Z M 40.27215194702148 44.22842407226562 L 44.99228668212891 48.80868148803711 L 42.90003204345703 50.96493530273438 L 38.25450134277344 46.45697784423828 C 38.97475051879883 45.75967788696289 39.64933776855469 45.01555633544922 40.27214813232422 44.22842788696289 Z M 56.96403884887695 58.928955078125 L 53.15280532836914 62.85677337646484 C 52.83696365356445 63.18207168579102 52.31262969970703 63.18910598754883 51.98398971557617 62.87222671508789 L 43.2417106628418 54.44290924072266 C 43.08615112304688 54.29288864135742 42.99839782714844 54.08889389038086 42.99482727050781 53.86830139160156 C 42.99113464355469 53.6453971862793 43.07323455810547 53.43587875366211 43.22626113891602 53.27835464477539 L 47.03760528564453 49.35042953491211 C 47.19823837280273 49.18483734130859 47.4127197265625 49.1019287109375 47.62813186645508 49.1019287109375 C 47.83615493774414 49.1019287109375 48.04487228393555 49.17942047119141 48.20642471313477 49.33509063720703 L 56.94858932495117 57.76440811157227 C 57.10426330566406 57.91466522216797 57.1920166015625 58.11865234375 57.19570922851562 58.33913040161133 C 57.19916534423828 58.56192016601562 57.11694717407227 58.77132415771484 56.96404647827148 58.92896270751953 Z M 22.56815528869629 11.70615768432617 C 12.34398460388184 11.70615768432617 4.026176452636719 20.02408218383789 4.026176452636719 30.24825286865234 C 4.026176452636719 40.47242736816406 12.3440990447998 48.79034805297852 22.56815528869629 48.79034805297852 C 32.79232788085938 48.79034805297852 41.11025238037109 40.47242736816406 41.11025238037109 30.24825286865234 C 41.11025238037109 20.02407836914062 32.79232788085938 11.70615768432617 22.56815528869629 11.70615768432617 Z M 22.56815528869629 46.94521331787109 C 13.36139678955078 46.94521331787109 5.871195793151855 39.45489883422852 5.871195793151855 30.24813461303711 C 5.871195793151855 21.04137420654297 13.36139678955078 13.55117511749268 22.56815528869629 13.55117511749268 C 31.77503395080566 13.55117511749268 39.26523208618164 21.0414924621582 39.26523208618164 30.24824905395508 C 39.26523208618164 39.45500946044922 31.7750301361084 46.94521331787109 22.56815528869629 46.94521331787109 Z M 35.26465606689453 32.80221939086914 L 26.73882293701172 18.03503036499023 C 25.86832046508789 16.52730560302734 24.30916213989258 15.62705039978027 22.56815528869629 15.62705039978027 C 20.82726669311523 15.62705039978027 19.26811027526855 16.52730369567871 18.39749145507812 18.03503036499023 L 9.871659278869629 32.80221939086914 C 9.001040458679199 34.30994415283203 9.001040458679199 36.11033630371094 9.871659278869629 37.61817932128906 C 10.74216270446777 39.12590789794922 12.30131912231445 40.02616119384766 14.04232501983643 40.02616119384766 L 31.09399032592773 40.02616119384766 C 32.83499526977539 40.02616119384766 34.3941535949707 39.12590408325195 35.26465606689453 37.61817932128906 C 36.13516235351562 36.11045837402344 36.13516235351562 34.31005859375 35.26465606689453 32.80221939086914 Z M 33.66675567626953 36.69567108154297 C 33.12973785400391 37.62579345703125 32.16790771484375 38.1811408996582 31.09387397766113 38.1811408996582 L 14.04232311248779 38.1811408996582 C 12.96840763092041 38.1811408996582 12.00657653808594 37.62590408325195 11.46944522857666 36.69567108154297 C 10.93231391906738 35.76554870605469 10.93231391906738 34.65496444702148 11.46944522857666 33.72472763061523 L 19.99527549743652 18.95754051208496 C 20.53229141235352 18.02742004394531 21.49412536621094 17.47206878662109 22.56815528869629 17.47206878662109 C 23.64218711853027 17.47206878662109 24.60390281677246 18.02730560302734 25.14103317260742 18.95754051208496 L 33.66686630249023 33.72472763061523 C 34.20388412475586 34.65484619140625 34.20388412475586 35.76554870605469 33.66675186157227 36.69567108154297 Z M 22.56792831420898 32.2601318359375 L 22.56827545166016 32.2601318359375 C 23.61843681335449 32.26001358032227 24.47071838378906 31.43794250488281 24.50854301452637 30.38858795166016 L 24.76615524291992 23.25390243530273 C 24.78564262390137 22.71469497680664 24.5980281829834 22.22426605224609 24.22325706481934 21.83565902709961 C 23.84860420227051 21.44728088378906 23.36543846130371 21.24202346801758 22.82565498352051 21.24202346801758 L 22.31032180786133 21.24202346801758 C 21.77065277099609 21.24202346801758 21.28737258911133 21.44728088378906 20.9126033782959 21.83577346801758 C 20.53794860839844 22.22414779663086 20.3503303527832 22.71457672119141 20.36970520019531 23.25390243530273 L 20.6273136138916 30.38847351074219 C 20.66548347473145 31.43806076049805 21.51776695251465 32.2601318359375 22.56792831420898 32.2601318359375 Z M 22.24090003967285 23.1164436340332 C 22.26649856567383 23.09003829956055 22.27364730834961 23.0869255065918 22.31054878234863 23.0869255065918 L 22.82588577270508 23.0869255065918 C 22.86278533935547 23.0869255065918 22.86993408203125 23.08992385864258 22.89541816711426 23.11632919311523 C 22.92090225219727 23.14273834228516 22.92389869689941 23.15069198608398 22.92263221740723 23.1871337890625 L 22.6650218963623 30.32193756103516 C 22.66306114196777 30.37417602539062 22.62062644958496 30.41510772705078 22.56838798522949 30.41510772705078 L 22.56827354431152 30.41510772705078 C 22.51603698730469 30.41510772705078 22.47360038757324 30.37429046630859 22.47175407409668 30.32181930541992 L 22.21414566040039 23.18724822998047 C 22.2125301361084 23.15034484863281 22.21529579162598 23.14296722412109 22.24089622497559 23.1164436340332 Z M 22.56815910339355 32.74605941772461 C 21.33949089050293 32.74605941772461 20.33995246887207 33.74559783935547 20.33995246887207 34.97426605224609 C 20.33995246887207 36.20293426513672 21.33949089050293 37.20258712768555 22.56815910339355 37.20258712768555 C 23.79682540893555 37.20258712768555 24.79648017883301 36.20293426513672 24.79648017883301 34.97426605224609 C 24.79648017883301 33.74559783935547 23.79682540893555 32.74605941772461 22.56815910339355 32.74605941772461 Z M 22.56815910339355 35.35757064819336 C 22.35678863525391 35.35757064819336 22.18497085571289 35.18563842773438 22.18497085571289 34.97426605224609 C 22.18497085571289 34.76301193237305 22.35690307617188 34.59107971191406 22.56815910339355 34.59107971191406 C 22.7794132232666 34.59107971191406 22.95146179199219 34.76301193237305 22.95146179199219 34.97426605224609 C 22.95146179199219 35.18563842773438 22.7794132232666 35.35757064819336 22.56815910339355 35.35757064819336 Z" fill="rgb(52,77,93)" stroke="none" stroke-width="0"/></g></svg>